<?xml version="1.0" standalone="no"?><!DOCTYPE svg PUBLIC "-//W3C//DTD SVG 1.1//EN" "http://www.w3.org/Graphics/SVG/1.1/DTD/svg11.dtd"><svg class="icon" width="16px" height="16.00px" viewBox="0 0 1024 1024" version="1.1" xmlns="http://www.w3.org/2000/svg"><path fill="#e0063b" d="M862.435556 844.231111c0 40.96-20.48 61.44-56.888889 61.44H209.351111c-34.133333 0-54.613333-18.204444-56.888889-52.337778-2.275556-77.368889 0-293.546667 0-368.64 27.306667-4.551111 56.888889-4.551111 81.92-15.928889 22.755556-11.377778 40.96-34.133333 63.715556-52.337777 20.48 36.408889 54.613333 63.715556 104.675555 63.715555 47.786667 0 81.92-25.031111 106.951111-68.266666 56.888889 93.297778 163.84 88.746667 211.626667 4.551111 20.48 18.204444 38.684444 40.96 61.44 52.337777 22.755556 11.377778 52.337778 11.377778 81.92 15.928889v22.755556c-2.275556 65.991111 0 270.791111-2.275555 336.782222z"  /><path fill="#e0063b" d="M851.057778 411.875556c-59.164444 11.377778-104.675556-18.204444-131.982222-86.471112-18.204444 56.888889-52.337778 91.022222-111.502223 88.746667-52.337778-2.275556-84.195556-34.133333-102.4-86.471111-20.48 59.164444-56.888889 91.022222-116.053333 86.471111-47.786667-2.275556-77.368889-29.582222-100.124444-86.471111-4.551111 9.102222-6.826667 18.204444-9.102223 25.031111-20.48 40.96-61.44 65.991111-106.951111 63.715556-45.511111-4.551111-81.92-34.133333-93.297778-79.644445-2.275556-13.653333-2.275556-29.582222 2.275556-43.235555 18.204444-54.613333 50.062222-104.675556 68.266667-159.288889 4.551111-13.653333 13.653333-18.204444 27.306666-18.204445h650.808889c15.928889 0 22.755556 4.551111 29.582222 20.48 18.204444 50.062222 43.235556 95.573333 65.991112 141.084445 31.857778 52.337778-13.653333 125.155556-72.817778 134.257778z"  /></svg>